<?xml version="1.0" encoding="UTF-8"?>
<svg id="Layer_2" data-name="Layer 2" xmlns="http://www.w3.org/2000/svg" viewBox="0 0 115.37 169.2">
  <defs>
    <style>
      .cls-1 {
        fill: #ab2e33;
      }

      .cls-2 {
        fill: #211e1e;
      }
    </style>
  </defs>
  <g id="Layer_1-2" data-name="Layer 1">
    <path class="cls-1" d="M22.53,169.2c-11.89,0-22.53-4.38-22.53-21.49V21.7C0,4.59,10.64,0,22.53,0c11.06,0,22.95,5.01,22.95,21.49v67.81l-20.65-.21V17.32c0-1.04-.42-2.29-2.09-2.29s-2.09,1.25-2.09,2.29v134.57c0,1.04.21,2.29,1.88,2.29s2.29-1.25,2.29-2.29v-29.62h-2.29v-16.27h22.95v41.52c0,16.48-11.89,21.7-22.95,21.7Z"/>
    <path class="cls-2" d="M100.98,120.59h-10.43v47.98h-14.4V19.61c0-15.02,8.55-18.99,19.4-18.99,10.22,0,19.82,4.8,19.82,18.99v148.96h-14.4v-47.98ZM95.76,9.81c-4.38,0-5.22,3.76-5.22,5.63v95.14h10.43V15.44c0-1.88-.83-5.63-5.22-5.63Z"/>
  </g>
</svg>