<?xml version="1.0" encoding="UTF-8"?>
<svg id="Layer_2" data-name="Layer 2" xmlns="http://www.w3.org/2000/svg" viewBox="0 0 514.89 187.91">
  <defs>
    <style>
      .cls-1 {
        fill: #ab2e33;
      }

      .cls-2 {
        fill: #211e1e;
      }
    </style>
  </defs>
  <g id="Layer_1-2" data-name="Layer 1">
    <path class="cls-1" d="M22.53,172.33c-11.89,0-22.53-4.38-22.53-21.49V24.83C0,7.72,10.64,3.13,22.53,3.13c11.06,0,22.95,5.01,22.95,21.49v67.81l-20.65-.21V20.45c0-1.04-.42-2.29-2.09-2.29s-2.09,1.25-2.09,2.29v134.57c0,1.04.21,2.29,1.88,2.29s2.29-1.25,2.29-2.29v-29.62h-2.29v-16.27h22.95v41.52c0,16.48-11.89,21.7-22.95,21.7Z"/>
    <path class="cls-1" d="M76.78,156.89c-1.88,2.71-6.05,4.59-10.22,4.59-11.27,0-14.6-6.88-14.6-18.36v-26.5c0-12.1,4.8-17.94,17.32-17.94h6.68V30.88c0-1.25-.83-2.09-2.09-2.09-1.46,0-2.09.83-2.09,2.5v53.83h-19.82v-52.16c0-15.02,8.76-20.24,21.91-20.24s21.91,6.68,21.91,19.61v128.52h-18.99v-3.96ZM73.65,114.54c-1.88,0-1.88,1.67-1.88,3.13v25.46c0,1.46.42,2.09,2.09,2.09s2.09-.84,2.09-2.29v-28.38h-2.29Z"/>
    <path class="cls-1" d="M150.84,34.53c0-1.67-.42-3.13-2.29-3.13-2.09,0-2.3,1.46-2.3,3.13v153.38h-19.82V34.53c0-1.67-.42-3.13-2.29-3.13s-2.09,1.46-2.09,3.13v153.38h-19.82V14.92h19.82v3.75c1.88-2.71,5.63-5.42,10.43-5.42,6.68,0,10.01,2.09,11.68,6.47,2.5-5.01,8.76-6.47,12.1-6.47,11.27,0,14.19,7.09,14.19,18.57v156.09h-19.61V34.53Z"/>
    <path class="cls-1" d="M198.83,172.33c-13.14,0-21.91-6.68-21.91-19.61V31.2c0-15.02,8.76-20.24,21.91-20.24s22.11,7.3,22.11,20.24v93.56h-24.2v29.42c0,1.46.63,2.09,1.88,2.09,1.67,0,2.29-.83,2.29-2.09v-15.65h20.03v13.77c0,15.02-8.97,20.03-22.11,20.03ZM198.83,26.61c-1.46,0-2.09.84-2.09,2.5v79.59h4.17V29.11c0-1.67-.83-2.5-2.09-2.5Z"/>
    <path class="cls-2" d="M257.45,123.72h-10.43v47.98h-14.4V22.74c0-15.02,8.55-18.99,19.4-18.99,10.22,0,19.82,4.8,19.82,18.99v148.96h-14.4v-47.98ZM252.24,12.94c-4.38,0-5.22,3.76-5.22,5.63v95.14h10.43V18.57c0-1.88-.83-5.63-5.22-5.63Z"/>
    <path class="cls-2" d="M302.79,31.82c0-2.29-.63-6.47-5.42-6.47-4.38,0-5.22,4.17-5.22,6.47,0,0,0,113.49.21,141.87h-13.56V15.34h13.35v5.63s2.09-6.47,12.31-6.47c7.72,0,11.89,4.59,11.89,15.44v59.88h-13.56V31.82Z"/>
    <path class="cls-2" d="M347.29,32.96c0-3.13-1.88-5.84-5.22-5.84-3.76,0-5.22,2.92-5.22,5.84v120.07c0,3.13,1.88,5.42,5.01,5.42,3.34,0,5.42-2.29,5.42-5.42v-32.96h13.77l-.21,30.67c0,13.35-6.88,17.94-18.78,17.94s-18.78-6.05-18.78-17.11V35.26c0-13.35,6.88-17.94,18.78-17.94s18.99,6.05,18.99,17.11v58.42h-13.77v-59.88Z"/>
    <path class="cls-2" d="M392.22,47.15c0-3.55-.83-6.88-5.22-6.88s-5.22,3.34-5.22,6.88v128.52h-13.77V8.35h13.56v26.08s2.09-6.47,12.31-6.47c7.3,0,11.89,3.75,11.89,14.6v133.11h-13.56V47.15Z"/>
    <path class="cls-2" d="M419.77,0c5.22,0,9.6,2.92,9.6,8.35s-4.38,8.34-9.6,8.34-9.6-2.92-9.6-8.34,4.38-8.35,9.6-8.35ZM412.68,24.2h13.77v146.88h-13.77V24.2Z"/>
    <path class="cls-2" d="M473.38,14.92l-11.89,146.88h-16.69l-11.68-146.88h13.77l4.17,80.74c1.25,22.95,2.09,49.03,2.09,49.03,0,0,.83-25.66,2.09-49.03l4.17-80.74h13.98Z"/>
    <path class="cls-2" d="M495.91,172.33c-11.89,0-18.78-6.05-18.78-17.11V40.89c0-13.35,6.88-17.94,18.78-17.94s18.99,6.47,18.99,17.94v81.79h-24.2v34.01c0,3.13,1.88,5.42,5.01,5.42,3.34,0,5.42-2.29,5.42-5.42v-20.24h13.77v18.15c0,13.35-6.88,17.73-18.99,17.73ZM495.91,32.76c-3.76,0-5.22,2.92-5.22,5.84v73.86h10.43V38.6c0-3.13-1.88-5.84-5.22-5.84Z"/>
  </g>
</svg>